<svg width="192" height="193" viewBox="0 0 192 193" fill="none" xmlns="http://www.w3.org/2000/svg">
<g filter="url(#filter0_dd_6135_27003)">
<circle cx="96" cy="92.3125" r="58.75" fill="#7DC391"/>
<circle cx="96" cy="92.3125" r="55.25" stroke="white" stroke-width="7"/>
</g>
<path d="M73.2106 89.1544C69.1922 85.3657 62.8633 85.5518 59.0746 89.5702C55.2858 93.5886 55.472 99.9175 59.4903 103.706L73.2106 89.1544ZM85.5678 114.549L78.7076 121.825C80.6657 123.672 83.2852 124.651 85.9742 124.541C88.6631 124.432 91.1945 123.243 92.9961 121.244L85.5678 114.549ZM133.078 76.7699C136.775 72.6673 136.447 66.3442 132.344 62.6468C128.242 58.9494 121.919 59.2779 118.221 63.3805L133.078 76.7699ZM59.4903 103.706L78.7076 121.825L92.4279 107.274L73.2106 89.1544L59.4903 103.706ZM92.9961 121.244L133.078 76.7699L118.221 63.3805L78.1394 107.855L92.9961 121.244Z" fill="white"/>
<defs>
<filter id="filter0_dd_6135_27003" x="0.25" y="0.5625" width="191.5" height="191.5" filterUnits="userSpaceOnUse" color-interpolation-filters="sRGB">
<feFlood flood-opacity="0" result="BackgroundImageFix"/>
<feColorMatrix in="SourceAlpha" type="matrix" values="0 0 0 0 0 0 0 0 0 0 0 0 0 0 0 0 0 0 127 0" result="hardAlpha"/>
<feOffset dy="4"/>
<feGaussianBlur stdDeviation="18.5"/>
<feComposite in2="hardAlpha" operator="out"/>
<feColorMatrix type="matrix" values="0 0 0 0 0.21268 0 0 0 0 0.129167 0 0 0 0 0.516667 0 0 0 0.11 0"/>
<feBlend mode="normal" in2="BackgroundImageFix" result="effect1_dropShadow_6135_27003"/>
<feColorMatrix in="SourceAlpha" type="matrix" values="0 0 0 0 0 0 0 0 0 0 0 0 0 0 0 0 0 0 127 0" result="hardAlpha"/>
<feOffset dy="4"/>
<feGaussianBlur stdDeviation="18.5"/>
<feComposite in2="hardAlpha" operator="out"/>
<feColorMatrix type="matrix" values="0 0 0 0 0.21268 0 0 0 0 0.129167 0 0 0 0 0.516667 0 0 0 0.11 0"/>
<feBlend mode="normal" in2="effect1_dropShadow_6135_27003" result="effect2_dropShadow_6135_27003"/>
<feBlend mode="normal" in="SourceGraphic" in2="effect2_dropShadow_6135_27003" result="shape"/>
</filter>
</defs>
</svg>
