<svg width="25" height="25" viewBox="0 0 25 25" fill="none" xmlns="http://www.w3.org/2000/svg">
<path d="M6.25 2.9668H15.25C15.7804 2.9668 16.2891 3.17751 16.6642 3.55258C17.0393 3.92766 17.25 4.43636 17.25 4.9668V6.9668H15.25V4.9668H6.25V20.9668H15.25V18.9668H17.25V20.9668C17.25 21.4972 17.0393 22.0059 16.6642 22.381C16.2891 22.7561 15.7804 22.9668 15.25 22.9668H6.25C5.71957 22.9668 5.21086 22.7561 4.83579 22.381C4.46071 22.0059 4.25 21.4972 4.25 20.9668V4.9668C4.25 4.43636 4.46071 3.92766 4.83579 3.55258C5.21086 3.17751 5.71957 2.9668 6.25 2.9668Z" fill="white"/>
<path d="M16.34 16.5568L17.75 17.9668L22.75 12.9668L17.75 7.9668L16.34 9.3768L18.92 11.9668H9.25V13.9668H18.92L16.34 16.5568Z" fill="white"/>
</svg>
